<svg xmlns="http://www.w3.org/2000/svg" width="838" height="846" viewBox="0 0 838 846"><rect width="100%" height="100%" fill="#ffffff"/><text x="16.0" y="30.0" font-size="17" fill="#1d2430" text-anchor="start" font-family="'Microsoft JhengHei','PingFang TC','Noto Sans CJK TC','Noto Sans TC',sans-serif" font-weight="bold">10-2. 狀態：找樓層 M201</text><text x="58.0" y="62.0" font-size="12" fill="#2f7d4f" text-anchor="start" font-family="'Microsoft JhengHei','PingFang TC','Noto Sans CJK TC','Noto Sans TC',sans-serif" font-weight="normal">＊找樓層前關門逾時 → 故障 7</text><line x1="58.0" y1="72.0" x2="58.0" y2="304.0" stroke="#1d2430" stroke-width="2.4"/><line x1="814.0" y1="72.0" x2="814.0" y2="304.0" stroke="#1d2430" stroke-width="2.4"/><text x="48.0" y="102.0" font-size="12" fill="#5d6b80" text-anchor="end" font-family="Consolas,'DejaVu Sans Mono',monospace" font-weight="normal">105</text><line x1="58.0" y1="98.0" x2="92.0" y2="98.0" stroke="#3a4556" stroke-width="1.4"/><line x1="108.0" y1="98.0" x2="142.0" y2="98.0" stroke="#3a4556" stroke-width="1.4"/><line x1="92.0" y1="87.0" x2="92.0" y2="109.0" stroke="#1d2430" stroke-width="1.8"/><line x1="108.0" y1="87.0" x2="108.0" y2="109.0" stroke="#1d2430" stroke-width="1.8"/><text x="100.0" y="82.0" font-size="12" fill="#1d2430" text-anchor="middle" font-family="Consolas,'DejaVu Sans Mono',monospace" font-weight="bold">M201</text><text x="100.0" y="122.0" font-size="11" fill="#5d6b80" text-anchor="middle" font-family="'Microsoft JhengHei','PingFang TC','Noto Sans CJK TC','Noto Sans TC',sans-serif" font-weight="normal">找樓層</text><line x1="142.0" y1="98.0" x2="176.0" y2="98.0" stroke="#3a4556" stroke-width="1.4"/><line x1="192.0" y1="98.0" x2="226.0" y2="98.0" stroke="#3a4556" stroke-width="1.4"/><line x1="176.0" y1="87.0" x2="176.0" y2="109.0" stroke="#1d2430" stroke-width="1.8"/><line x1="192.0" y1="87.0" x2="192.0" y2="109.0" stroke="#1d2430" stroke-width="1.8"/><line x1="173.0" y1="108.0" x2="195.0" y2="88.0" stroke="#1d2430" stroke-width="1.5"/><text x="184.0" y="82.0" font-size="12" fill="#1d2430" text-anchor="middle" font-family="Consolas,'DejaVu Sans Mono',monospace" font-weight="bold">X17</text><text x="184.0" y="122.0" font-size="11" fill="#5d6b80" text-anchor="middle" font-family="'Microsoft JhengHei','PingFang TC','Noto Sans CJK TC','Noto Sans TC',sans-serif" font-weight="normal">關門到位</text><line x1="226.0" y1="98.0" x2="260.0" y2="98.0" stroke="#3a4556" stroke-width="1.4"/><line x1="276.0" y1="98.0" x2="310.0" y2="98.0" stroke="#3a4556" stroke-width="1.4"/><line x1="260.0" y1="87.0" x2="260.0" y2="109.0" stroke="#1d2430" stroke-width="1.8"/><line x1="276.0" y1="87.0" x2="276.0" y2="109.0" stroke="#1d2430" stroke-width="1.8"/><text x="268.0" y="82.0" font-size="12" fill="#1d2430" text-anchor="middle" font-family="Consolas,'DejaVu Sans Mono',monospace" font-weight="bold">T1</text><text x="268.0" y="122.0" font-size="11" fill="#5d6b80" text-anchor="middle" font-family="'Microsoft JhengHei','PingFang TC','Noto Sans CJK TC','Noto Sans TC',sans-serif" font-weight="normal">找樓層關門逾時</text><line x1="310.0" y1="98.0" x2="344.0" y2="98.0" stroke="#3a4556" stroke-width="1.4"/><line x1="360.0" y1="98.0" x2="394.0" y2="98.0" stroke="#3a4556" stroke-width="1.4"/><line x1="344.0" y1="87.0" x2="344.0" y2="109.0" stroke="#1d2430" stroke-width="1.8"/><line x1="360.0" y1="87.0" x2="360.0" y2="109.0" stroke="#1d2430" stroke-width="1.8"/><line x1="341.0" y1="108.0" x2="363.0" y2="88.0" stroke="#1d2430" stroke-width="1.5"/><text x="352.0" y="82.0" font-size="12" fill="#1d2430" text-anchor="middle" font-family="Consolas,'DejaVu Sans Mono',monospace" font-weight="bold">M232</text><text x="352.0" y="122.0" font-size="11" fill="#5d6b80" text-anchor="middle" font-family="'Microsoft JhengHei','PingFang TC','Noto Sans CJK TC','Noto Sans TC',sans-serif" font-weight="normal">本掃描已轉移</text><line x1="394.0" y1="98.0" x2="562.0" y2="98.0" stroke="#3a4556" stroke-width="1.4"/><line x1="562.0" y1="98.0" x2="591.4" y2="98.0" stroke="#3a4556" stroke-width="1.4"/><line x1="806.0" y1="98.0" x2="814.0" y2="98.0" stroke="#3a4556" stroke-width="1.4"/><rect x="591.4" y="86.0" width="214.6" height="24" fill="#fff" stroke="#1f4e8c" stroke-width="1.3" rx="2"/><text x="698.7" y="102.5" font-size="12" fill="#1f4e8c" text-anchor="middle" font-family="Consolas,'DejaVu Sans Mono',monospace" font-weight="bold">RST M201</text><text x="698.7" y="122.0" font-size="11" fill="#5d6b80" text-anchor="middle" font-family="'Microsoft JhengHei','PingFang TC','Noto Sans CJK TC','Noto Sans TC',sans-serif" font-weight="normal">找樓層</text><line x1="562.0" y1="156.0" x2="591.4" y2="156.0" stroke="#3a4556" stroke-width="1.4"/><line x1="806.0" y1="156.0" x2="814.0" y2="156.0" stroke="#3a4556" stroke-width="1.4"/><rect x="591.4" y="144.0" width="214.6" height="24" fill="#fff" stroke="#1f4e8c" stroke-width="1.3" rx="2"/><text x="698.7" y="160.5" font-size="12" fill="#1f4e8c" text-anchor="middle" font-family="Consolas,'DejaVu Sans Mono',monospace" font-weight="bold">SET M210</text><text x="698.7" y="180.0" font-size="11" fill="#5d6b80" text-anchor="middle" font-family="'Microsoft JhengHei','PingFang TC','Noto Sans CJK TC','Noto Sans TC',sans-serif" font-weight="normal">故障</text><line x1="562.0" y1="214.0" x2="591.4" y2="214.0" stroke="#3a4556" stroke-width="1.4"/><line x1="806.0" y1="214.0" x2="814.0" y2="214.0" stroke="#3a4556" stroke-width="1.4"/><rect x="591.4" y="202.0" width="214.6" height="24" fill="#fff" stroke="#1f4e8c" stroke-width="1.3" rx="2"/><text x="698.7" y="218.5" font-size="12" fill="#1f4e8c" text-anchor="middle" font-family="Consolas,'DejaVu Sans Mono',monospace" font-weight="bold">MOV K7 D1</text><text x="698.7" y="238.0" font-size="11" fill="#5d6b80" text-anchor="middle" font-family="'Microsoft JhengHei','PingFang TC','Noto Sans CJK TC','Noto Sans TC',sans-serif" font-weight="normal">→ 故障碼</text><line x1="562.0" y1="272.0" x2="591.4" y2="272.0" stroke="#3a4556" stroke-width="1.4"/><line x1="806.0" y1="272.0" x2="814.0" y2="272.0" stroke="#3a4556" stroke-width="1.4"/><rect x="591.4" y="260.0" width="214.6" height="24" fill="#fff" stroke="#1f4e8c" stroke-width="1.3" rx="2"/><text x="698.7" y="276.5" font-size="12" fill="#1f4e8c" text-anchor="middle" font-family="Consolas,'DejaVu Sans Mono',monospace" font-weight="bold">SET M232</text><text x="698.7" y="296.0" font-size="11" fill="#5d6b80" text-anchor="middle" font-family="'Microsoft JhengHei','PingFang TC','Noto Sans CJK TC','Noto Sans TC',sans-serif" font-weight="normal">本掃描已轉移</text><line x1="562.0" y1="98.0" x2="562.0" y2="272.0" stroke="#3a4556" stroke-width="1.4"/><text x="58.0" y="332.0" font-size="12" fill="#2f7d4f" text-anchor="start" font-family="'Microsoft JhengHei','PingFang TC','Noto Sans CJK TC','Noto Sans TC',sans-serif" font-weight="normal">＊找到樓層 → 停車，停妥後開門</text><line x1="58.0" y1="342.0" x2="58.0" y2="632.0" stroke="#1d2430" stroke-width="2.4"/><line x1="814.0" y1="342.0" x2="814.0" y2="632.0" stroke="#1d2430" stroke-width="2.4"/><text x="48.0" y="372.0" font-size="12" fill="#5d6b80" text-anchor="end" font-family="Consolas,'DejaVu Sans Mono',monospace" font-weight="normal">106</text><line x1="58.0" y1="368.0" x2="92.0" y2="368.0" stroke="#3a4556" stroke-width="1.4"/><line x1="108.0" y1="368.0" x2="142.0" y2="368.0" stroke="#3a4556" stroke-width="1.4"/><line x1="92.0" y1="357.0" x2="92.0" y2="379.0" stroke="#1d2430" stroke-width="1.8"/><line x1="108.0" y1="357.0" x2="108.0" y2="379.0" stroke="#1d2430" stroke-width="1.8"/><text x="100.0" y="352.0" font-size="12" fill="#1d2430" text-anchor="middle" font-family="Consolas,'DejaVu Sans Mono',monospace" font-weight="bold">M201</text><text x="100.0" y="392.0" font-size="11" fill="#5d6b80" text-anchor="middle" font-family="'Microsoft JhengHei','PingFang TC','Noto Sans CJK TC','Noto Sans TC',sans-serif" font-weight="normal">找樓層</text><line x1="142.0" y1="368.0" x2="176.0" y2="368.0" stroke="#3a4556" stroke-width="1.4"/><line x1="192.0" y1="368.0" x2="226.0" y2="368.0" stroke="#3a4556" stroke-width="1.4"/><line x1="176.0" y1="357.0" x2="176.0" y2="379.0" stroke="#1d2430" stroke-width="1.8"/><line x1="192.0" y1="357.0" x2="192.0" y2="379.0" stroke="#1d2430" stroke-width="1.8"/><text x="184.0" y="352.0" font-size="12" fill="#1d2430" text-anchor="middle" font-family="Consolas,'DejaVu Sans Mono',monospace" font-weight="bold">X17</text><text x="184.0" y="392.0" font-size="11" fill="#5d6b80" text-anchor="middle" font-family="'Microsoft JhengHei','PingFang TC','Noto Sans CJK TC','Noto Sans TC',sans-serif" font-weight="normal">關門到位</text><line x1="226.0" y1="368.0" x2="260.0" y2="368.0" stroke="#3a4556" stroke-width="1.4"/><line x1="276.0" y1="368.0" x2="310.0" y2="368.0" stroke="#3a4556" stroke-width="1.4"/><line x1="260.0" y1="357.0" x2="260.0" y2="379.0" stroke="#1d2430" stroke-width="1.8"/><line x1="276.0" y1="357.0" x2="276.0" y2="379.0" stroke="#1d2430" stroke-width="1.8"/><text x="268.0" y="352.0" font-size="12" fill="#1d2430" text-anchor="middle" font-family="Consolas,'DejaVu Sans Mono',monospace" font-weight="bold">M150</text><text x="268.0" y="392.0" font-size="11" fill="#5d6b80" text-anchor="middle" font-family="'Microsoft JhengHei','PingFang TC','Noto Sans CJK TC','Noto Sans TC',sans-serif" font-weight="normal">在平層區</text><line x1="310.0" y1="368.0" x2="344.0" y2="368.0" stroke="#3a4556" stroke-width="1.4"/><line x1="360.0" y1="368.0" x2="394.0" y2="368.0" stroke="#3a4556" stroke-width="1.4"/><line x1="344.0" y1="357.0" x2="344.0" y2="379.0" stroke="#1d2430" stroke-width="1.8"/><line x1="360.0" y1="357.0" x2="360.0" y2="379.0" stroke="#1d2430" stroke-width="1.8"/><line x1="341.0" y1="378.0" x2="363.0" y2="358.0" stroke="#1d2430" stroke-width="1.5"/><text x="352.0" y="352.0" font-size="12" fill="#1d2430" text-anchor="middle" font-family="Consolas,'DejaVu Sans Mono',monospace" font-weight="bold">M232</text><text x="352.0" y="392.0" font-size="11" fill="#5d6b80" text-anchor="middle" font-family="'Microsoft JhengHei','PingFang TC','Noto Sans CJK TC','Noto Sans TC',sans-serif" font-weight="normal">本掃描已轉移</text><line x1="394.0" y1="368.0" x2="562.0" y2="368.0" stroke="#3a4556" stroke-width="1.4"/><line x1="562.0" y1="368.0" x2="591.4" y2="368.0" stroke="#3a4556" stroke-width="1.4"/><line x1="806.0" y1="368.0" x2="814.0" y2="368.0" stroke="#3a4556" stroke-width="1.4"/><rect x="591.4" y="356.0" width="214.6" height="24" fill="#fff" stroke="#1f4e8c" stroke-width="1.3" rx="2"/><text x="698.7" y="372.5" font-size="12" fill="#1f4e8c" text-anchor="middle" font-family="Consolas,'DejaVu Sans Mono',monospace" font-weight="bold">MOV D2 D0</text><text x="698.7" y="392.0" font-size="11" fill="#5d6b80" text-anchor="middle" font-family="'Microsoft JhengHei','PingFang TC','Noto Sans CJK TC','Noto Sans TC',sans-serif" font-weight="normal">→ 目前樓層</text><line x1="562.0" y1="426.0" x2="591.4" y2="426.0" stroke="#3a4556" stroke-width="1.4"/><line x1="806.0" y1="426.0" x2="814.0" y2="426.0" stroke="#3a4556" stroke-width="1.4"/><rect x="591.4" y="414.0" width="214.6" height="24" fill="#fff" stroke="#1f4e8c" stroke-width="1.3" rx="2"/><text x="698.7" y="430.5" font-size="12" fill="#1f4e8c" text-anchor="middle" font-family="Consolas,'DejaVu Sans Mono',monospace" font-weight="bold">SET M228</text><text x="698.7" y="450.0" font-size="11" fill="#5d6b80" text-anchor="middle" font-family="'Microsoft JhengHei','PingFang TC','Noto Sans CJK TC','Noto Sans TC',sans-serif" font-weight="normal">停妥後開門</text><line x1="562.0" y1="484.0" x2="591.4" y2="484.0" stroke="#3a4556" stroke-width="1.4"/><line x1="806.0" y1="484.0" x2="814.0" y2="484.0" stroke="#3a4556" stroke-width="1.4"/><rect x="591.4" y="472.0" width="214.6" height="24" fill="#fff" stroke="#1f4e8c" stroke-width="1.3" rx="2"/><text x="698.7" y="488.5" font-size="12" fill="#1f4e8c" text-anchor="middle" font-family="Consolas,'DejaVu Sans Mono',monospace" font-weight="bold">SET M208</text><text x="698.7" y="508.0" font-size="11" fill="#5d6b80" text-anchor="middle" font-family="'Microsoft JhengHei','PingFang TC','Noto Sans CJK TC','Noto Sans TC',sans-serif" font-weight="normal">停車</text><line x1="562.0" y1="542.0" x2="591.4" y2="542.0" stroke="#3a4556" stroke-width="1.4"/><line x1="806.0" y1="542.0" x2="814.0" y2="542.0" stroke="#3a4556" stroke-width="1.4"/><rect x="591.4" y="530.0" width="214.6" height="24" fill="#fff" stroke="#1f4e8c" stroke-width="1.3" rx="2"/><text x="698.7" y="546.5" font-size="12" fill="#1f4e8c" text-anchor="middle" font-family="Consolas,'DejaVu Sans Mono',monospace" font-weight="bold">RST M201</text><text x="698.7" y="566.0" font-size="11" fill="#5d6b80" text-anchor="middle" font-family="'Microsoft JhengHei','PingFang TC','Noto Sans CJK TC','Noto Sans TC',sans-serif" font-weight="normal">找樓層</text><line x1="562.0" y1="600.0" x2="591.4" y2="600.0" stroke="#3a4556" stroke-width="1.4"/><line x1="806.0" y1="600.0" x2="814.0" y2="600.0" stroke="#3a4556" stroke-width="1.4"/><rect x="591.4" y="588.0" width="214.6" height="24" fill="#fff" stroke="#1f4e8c" stroke-width="1.3" rx="2"/><text x="698.7" y="604.5" font-size="12" fill="#1f4e8c" text-anchor="middle" font-family="Consolas,'DejaVu Sans Mono',monospace" font-weight="bold">SET M232</text><text x="698.7" y="624.0" font-size="11" fill="#5d6b80" text-anchor="middle" font-family="'Microsoft JhengHei','PingFang TC','Noto Sans CJK TC','Noto Sans TC',sans-serif" font-weight="normal">本掃描已轉移</text><line x1="562.0" y1="368.0" x2="562.0" y2="600.0" stroke="#3a4556" stroke-width="1.4"/><text x="58.0" y="660.0" font-size="12" fill="#2f7d4f" text-anchor="start" font-family="'Microsoft JhengHei','PingFang TC','Noto Sans CJK TC','Noto Sans TC',sans-serif" font-weight="normal">＊找樓層方向：往下</text><line x1="58.0" y1="670.0" x2="58.0" y2="728.0" stroke="#1d2430" stroke-width="2.4"/><line x1="814.0" y1="670.0" x2="814.0" y2="728.0" stroke="#1d2430" stroke-width="2.4"/><text x="48.0" y="700.0" font-size="12" fill="#5d6b80" text-anchor="end" font-family="Consolas,'DejaVu Sans Mono',monospace" font-weight="normal">107</text><line x1="58.0" y1="696.0" x2="92.0" y2="696.0" stroke="#3a4556" stroke-width="1.4"/><line x1="108.0" y1="696.0" x2="142.0" y2="696.0" stroke="#3a4556" stroke-width="1.4"/><line x1="92.0" y1="685.0" x2="92.0" y2="707.0" stroke="#1d2430" stroke-width="1.8"/><line x1="108.0" y1="685.0" x2="108.0" y2="707.0" stroke="#1d2430" stroke-width="1.8"/><text x="100.0" y="680.0" font-size="12" fill="#1d2430" text-anchor="middle" font-family="Consolas,'DejaVu Sans Mono',monospace" font-weight="bold">M201</text><text x="100.0" y="720.0" font-size="11" fill="#5d6b80" text-anchor="middle" font-family="'Microsoft JhengHei','PingFang TC','Noto Sans CJK TC','Noto Sans TC',sans-serif" font-weight="normal">找樓層</text><line x1="142.0" y1="696.0" x2="176.0" y2="696.0" stroke="#3a4556" stroke-width="1.4"/><line x1="192.0" y1="696.0" x2="226.0" y2="696.0" stroke="#3a4556" stroke-width="1.4"/><line x1="176.0" y1="685.0" x2="176.0" y2="707.0" stroke="#1d2430" stroke-width="1.8"/><line x1="192.0" y1="685.0" x2="192.0" y2="707.0" stroke="#1d2430" stroke-width="1.8"/><text x="184.0" y="680.0" font-size="12" fill="#1d2430" text-anchor="middle" font-family="Consolas,'DejaVu Sans Mono',monospace" font-weight="bold">X17</text><text x="184.0" y="720.0" font-size="11" fill="#5d6b80" text-anchor="middle" font-family="'Microsoft JhengHei','PingFang TC','Noto Sans CJK TC','Noto Sans TC',sans-serif" font-weight="normal">關門到位</text><line x1="226.0" y1="696.0" x2="260.0" y2="696.0" stroke="#3a4556" stroke-width="1.4"/><line x1="276.0" y1="696.0" x2="310.0" y2="696.0" stroke="#3a4556" stroke-width="1.4"/><line x1="260.0" y1="685.0" x2="260.0" y2="707.0" stroke="#1d2430" stroke-width="1.8"/><line x1="276.0" y1="685.0" x2="276.0" y2="707.0" stroke="#1d2430" stroke-width="1.8"/><line x1="257.0" y1="706.0" x2="279.0" y2="686.0" stroke="#1d2430" stroke-width="1.5"/><text x="268.0" y="680.0" font-size="12" fill="#1d2430" text-anchor="middle" font-family="Consolas,'DejaVu Sans Mono',monospace" font-weight="bold">M150</text><text x="268.0" y="720.0" font-size="11" fill="#5d6b80" text-anchor="middle" font-family="'Microsoft JhengHei','PingFang TC','Noto Sans CJK TC','Noto Sans TC',sans-serif" font-weight="normal">在平層區</text><line x1="310.0" y1="696.0" x2="344.0" y2="696.0" stroke="#3a4556" stroke-width="1.4"/><line x1="360.0" y1="696.0" x2="394.0" y2="696.0" stroke="#3a4556" stroke-width="1.4"/><line x1="344.0" y1="685.0" x2="344.0" y2="707.0" stroke="#1d2430" stroke-width="1.8"/><line x1="360.0" y1="685.0" x2="360.0" y2="707.0" stroke="#1d2430" stroke-width="1.8"/><line x1="341.0" y1="706.0" x2="363.0" y2="686.0" stroke="#1d2430" stroke-width="1.5"/><text x="352.0" y="680.0" font-size="12" fill="#1d2430" text-anchor="middle" font-family="Consolas,'DejaVu Sans Mono',monospace" font-weight="bold">M222</text><text x="352.0" y="720.0" font-size="11" fill="#5d6b80" text-anchor="middle" font-family="'Microsoft JhengHei','PingFang TC','Noto Sans CJK TC','Noto Sans TC',sans-serif" font-weight="normal">運轉方向上</text><line x1="394.0" y1="696.0" x2="428.0" y2="696.0" stroke="#3a4556" stroke-width="1.4"/><line x1="444.0" y1="696.0" x2="478.0" y2="696.0" stroke="#3a4556" stroke-width="1.4"/><line x1="428.0" y1="685.0" x2="428.0" y2="707.0" stroke="#1d2430" stroke-width="1.8"/><line x1="444.0" y1="685.0" x2="444.0" y2="707.0" stroke="#1d2430" stroke-width="1.8"/><line x1="425.0" y1="706.0" x2="447.0" y2="686.0" stroke="#1d2430" stroke-width="1.5"/><text x="436.0" y="680.0" font-size="12" fill="#1d2430" text-anchor="middle" font-family="Consolas,'DejaVu Sans Mono',monospace" font-weight="bold">M223</text><text x="436.0" y="720.0" font-size="11" fill="#5d6b80" text-anchor="middle" font-family="'Microsoft JhengHei','PingFang TC','Noto Sans CJK TC','Noto Sans TC',sans-serif" font-weight="normal">運轉方向下</text><line x1="478.0" y1="696.0" x2="512.0" y2="696.0" stroke="#3a4556" stroke-width="1.4"/><line x1="528.0" y1="696.0" x2="562.0" y2="696.0" stroke="#3a4556" stroke-width="1.4"/><line x1="512.0" y1="685.0" x2="512.0" y2="707.0" stroke="#1d2430" stroke-width="1.8"/><line x1="528.0" y1="685.0" x2="528.0" y2="707.0" stroke="#1d2430" stroke-width="1.8"/><text x="520.0" y="680.0" font-size="12" fill="#1d2430" text-anchor="middle" font-family="Consolas,'DejaVu Sans Mono',monospace" font-weight="bold">X26</text><text x="520.0" y="720.0" font-size="11" fill="#5d6b80" text-anchor="middle" font-family="'Microsoft JhengHei','PingFang TC','Noto Sans CJK TC','Noto Sans TC',sans-serif" font-weight="normal">下極限正常</text><line x1="562.0" y1="696.0" x2="562.0" y2="696.0" stroke="#3a4556" stroke-width="1.4"/><line x1="562.0" y1="696.0" x2="591.4" y2="696.0" stroke="#3a4556" stroke-width="1.4"/><line x1="806.0" y1="696.0" x2="814.0" y2="696.0" stroke="#3a4556" stroke-width="1.4"/><rect x="591.4" y="684.0" width="214.6" height="24" fill="#fff" stroke="#1f4e8c" stroke-width="1.3" rx="2"/><text x="698.7" y="700.5" font-size="12" fill="#1f4e8c" text-anchor="middle" font-family="Consolas,'DejaVu Sans Mono',monospace" font-weight="bold">SET M223</text><text x="698.7" y="720.0" font-size="11" fill="#5d6b80" text-anchor="middle" font-family="'Microsoft JhengHei','PingFang TC','Noto Sans CJK TC','Noto Sans TC',sans-serif" font-weight="normal">運轉方向下</text><text x="58.0" y="756.0" font-size="12" fill="#2f7d4f" text-anchor="start" font-family="'Microsoft JhengHei','PingFang TC','Noto Sans CJK TC','Noto Sans TC',sans-serif" font-weight="normal">＊已壓到下極限 → 往上</text><line x1="58.0" y1="766.0" x2="58.0" y2="824.0" stroke="#1d2430" stroke-width="2.4"/><line x1="814.0" y1="766.0" x2="814.0" y2="824.0" stroke="#1d2430" stroke-width="2.4"/><text x="48.0" y="796.0" font-size="12" fill="#5d6b80" text-anchor="end" font-family="Consolas,'DejaVu Sans Mono',monospace" font-weight="normal">108</text><line x1="58.0" y1="792.0" x2="92.0" y2="792.0" stroke="#3a4556" stroke-width="1.4"/><line x1="108.0" y1="792.0" x2="142.0" y2="792.0" stroke="#3a4556" stroke-width="1.4"/><line x1="92.0" y1="781.0" x2="92.0" y2="803.0" stroke="#1d2430" stroke-width="1.8"/><line x1="108.0" y1="781.0" x2="108.0" y2="803.0" stroke="#1d2430" stroke-width="1.8"/><text x="100.0" y="776.0" font-size="12" fill="#1d2430" text-anchor="middle" font-family="Consolas,'DejaVu Sans Mono',monospace" font-weight="bold">M201</text><text x="100.0" y="816.0" font-size="11" fill="#5d6b80" text-anchor="middle" font-family="'Microsoft JhengHei','PingFang TC','Noto Sans CJK TC','Noto Sans TC',sans-serif" font-weight="normal">找樓層</text><line x1="142.0" y1="792.0" x2="176.0" y2="792.0" stroke="#3a4556" stroke-width="1.4"/><line x1="192.0" y1="792.0" x2="226.0" y2="792.0" stroke="#3a4556" stroke-width="1.4"/><line x1="176.0" y1="781.0" x2="176.0" y2="803.0" stroke="#1d2430" stroke-width="1.8"/><line x1="192.0" y1="781.0" x2="192.0" y2="803.0" stroke="#1d2430" stroke-width="1.8"/><text x="184.0" y="776.0" font-size="12" fill="#1d2430" text-anchor="middle" font-family="Consolas,'DejaVu Sans Mono',monospace" font-weight="bold">X17</text><text x="184.0" y="816.0" font-size="11" fill="#5d6b80" text-anchor="middle" font-family="'Microsoft JhengHei','PingFang TC','Noto Sans CJK TC','Noto Sans TC',sans-serif" font-weight="normal">關門到位</text><line x1="226.0" y1="792.0" x2="260.0" y2="792.0" stroke="#3a4556" stroke-width="1.4"/><line x1="276.0" y1="792.0" x2="310.0" y2="792.0" stroke="#3a4556" stroke-width="1.4"/><line x1="260.0" y1="781.0" x2="260.0" y2="803.0" stroke="#1d2430" stroke-width="1.8"/><line x1="276.0" y1="781.0" x2="276.0" y2="803.0" stroke="#1d2430" stroke-width="1.8"/><line x1="257.0" y1="802.0" x2="279.0" y2="782.0" stroke="#1d2430" stroke-width="1.5"/><text x="268.0" y="776.0" font-size="12" fill="#1d2430" text-anchor="middle" font-family="Consolas,'DejaVu Sans Mono',monospace" font-weight="bold">M150</text><text x="268.0" y="816.0" font-size="11" fill="#5d6b80" text-anchor="middle" font-family="'Microsoft JhengHei','PingFang TC','Noto Sans CJK TC','Noto Sans TC',sans-serif" font-weight="normal">在平層區</text><line x1="310.0" y1="792.0" x2="344.0" y2="792.0" stroke="#3a4556" stroke-width="1.4"/><line x1="360.0" y1="792.0" x2="394.0" y2="792.0" stroke="#3a4556" stroke-width="1.4"/><line x1="344.0" y1="781.0" x2="344.0" y2="803.0" stroke="#1d2430" stroke-width="1.8"/><line x1="360.0" y1="781.0" x2="360.0" y2="803.0" stroke="#1d2430" stroke-width="1.8"/><line x1="341.0" y1="802.0" x2="363.0" y2="782.0" stroke="#1d2430" stroke-width="1.5"/><text x="352.0" y="776.0" font-size="12" fill="#1d2430" text-anchor="middle" font-family="Consolas,'DejaVu Sans Mono',monospace" font-weight="bold">M222</text><text x="352.0" y="816.0" font-size="11" fill="#5d6b80" text-anchor="middle" font-family="'Microsoft JhengHei','PingFang TC','Noto Sans CJK TC','Noto Sans TC',sans-serif" font-weight="normal">運轉方向上</text><line x1="394.0" y1="792.0" x2="428.0" y2="792.0" stroke="#3a4556" stroke-width="1.4"/><line x1="444.0" y1="792.0" x2="478.0" y2="792.0" stroke="#3a4556" stroke-width="1.4"/><line x1="428.0" y1="781.0" x2="428.0" y2="803.0" stroke="#1d2430" stroke-width="1.8"/><line x1="444.0" y1="781.0" x2="444.0" y2="803.0" stroke="#1d2430" stroke-width="1.8"/><line x1="425.0" y1="802.0" x2="447.0" y2="782.0" stroke="#1d2430" stroke-width="1.5"/><text x="436.0" y="776.0" font-size="12" fill="#1d2430" text-anchor="middle" font-family="Consolas,'DejaVu Sans Mono',monospace" font-weight="bold">M223</text><text x="436.0" y="816.0" font-size="11" fill="#5d6b80" text-anchor="middle" font-family="'Microsoft JhengHei','PingFang TC','Noto Sans CJK TC','Noto Sans TC',sans-serif" font-weight="normal">運轉方向下</text><line x1="478.0" y1="792.0" x2="512.0" y2="792.0" stroke="#3a4556" stroke-width="1.4"/><line x1="528.0" y1="792.0" x2="562.0" y2="792.0" stroke="#3a4556" stroke-width="1.4"/><line x1="512.0" y1="781.0" x2="512.0" y2="803.0" stroke="#1d2430" stroke-width="1.8"/><line x1="528.0" y1="781.0" x2="528.0" y2="803.0" stroke="#1d2430" stroke-width="1.8"/><line x1="509.0" y1="802.0" x2="531.0" y2="782.0" stroke="#1d2430" stroke-width="1.5"/><text x="520.0" y="776.0" font-size="12" fill="#1d2430" text-anchor="middle" font-family="Consolas,'DejaVu Sans Mono',monospace" font-weight="bold">X26</text><text x="520.0" y="816.0" font-size="11" fill="#5d6b80" text-anchor="middle" font-family="'Microsoft JhengHei','PingFang TC','Noto Sans CJK TC','Noto Sans TC',sans-serif" font-weight="normal">下極限正常</text><line x1="562.0" y1="792.0" x2="562.0" y2="792.0" stroke="#3a4556" stroke-width="1.4"/><line x1="562.0" y1="792.0" x2="591.4" y2="792.0" stroke="#3a4556" stroke-width="1.4"/><line x1="806.0" y1="792.0" x2="814.0" y2="792.0" stroke="#3a4556" stroke-width="1.4"/><rect x="591.4" y="780.0" width="214.6" height="24" fill="#fff" stroke="#1f4e8c" stroke-width="1.3" rx="2"/><text x="698.7" y="796.5" font-size="12" fill="#1f4e8c" text-anchor="middle" font-family="Consolas,'DejaVu Sans Mono',monospace" font-weight="bold">SET M222</text><text x="698.7" y="816.0" font-size="11" fill="#5d6b80" text-anchor="middle" font-family="'Microsoft JhengHei','PingFang TC','Noto Sans CJK TC','Noto Sans TC',sans-serif" font-weight="normal">運轉方向上</text></svg>
